<?xml version="1.0" encoding="UTF-8"?>
<svg xmlns="http://www.w3.org/2000/svg" viewBox="0 0 1100 330" role="img" aria-label="Bacumi secondary logo" shape-rendering="geometricPrecision">

  <defs>
    <linearGradient id="brand-teal" x1="0" y1="0" x2="1" y2="1">
      <stop offset="0" stop-color="#0D6E8A"/><stop offset="1" stop-color="#19A0BE"/>
    </linearGradient>
    <linearGradient id="brand-navy" x1="0" y1="0" x2="1" y2="1">
      <stop offset="0" stop-color="#163C69"/><stop offset="0.55" stop-color="#0B2347"/><stop offset="1" stop-color="#0B132B"/>
    </linearGradient>
    <linearGradient id="brand-silver" x1="0" y1="0" x2="1" y2="1">
      <stop offset="0" stop-color="#F5F7F9"/><stop offset="0.38" stop-color="#C7CCD3"/><stop offset="0.72" stop-color="#8D949E"/><stop offset="1" stop-color="#F5F7F9"/>
    </linearGradient>
    <linearGradient id="brand-field" x1="0" y1="0" x2="1" y2="1">
      <stop offset="0" stop-color="#172340"/><stop offset="0.52" stop-color="#0B132B"/><stop offset="1" stop-color="#071022"/>
    </linearGradient>
    <filter id="brand-shadow" x="-20%" y="-20%" width="140%" height="150%">
      <feDropShadow dx="0" dy="18" stdDeviation="20" flood-color="#050B18" flood-opacity="0.32"/>
    </filter>
  </defs>
  <g transform="translate(28 -28) scale(.50)">
  <g aria-label="Bacumi folded ribbon brand mark">
    <path d="M82 70 L365 226 Q416 253 416 306 L416 338 L82 153 Z" fill="url(#brand-teal)"/>
    <path d="M82 214 L330 351 L246 399 L82 308 Z" fill="url(#brand-navy)"/>
    <path d="M246 399 L246 554 L180 590 L180 432 Q180 397 211 379 L263 350 L330 351 Z" fill="url(#brand-navy)"/>
    <path d="M330 351 L391 385 Q416 400 416 431 L416 487 Q416 522 385 540 L246 618 L246 532 L340 479 Q361 467 340 455 L277 420 Z" fill="url(#brand-silver)"/>
    <path d="M246 440 L332 487 L246 535 Z" fill="#F5F7F9"/>
  </g></g>

  <g transform="translate(338 65) scale(.92)">
  <g fill="none" stroke="#0B132B" stroke-width="22" stroke-linecap="round" stroke-linejoin="round" aria-label="Bacumi outlined wordmark">
    <path data-letter="B" d="M24 24 V184 H80 Q132 184 132 143 Q132 103 81 103 H24 H77 Q124 103 124 63 Q124 24 77 24 Z"/>
    <path data-letter="a" d="M178 102 Q198 82 229 82 Q270 82 270 120 V184 M270 142 Q250 184 211 184 Q177 184 177 155 Q177 128 211 128 H270"/>
    <path data-letter="c" transform="translate(24 0)" d="M365 104 Q347 82 317 82 Q282 82 282 133 Q282 184 317 184 Q347 184 365 163"/>
    <path data-letter="u" transform="translate(24 0)" d="M390 84 V145 Q390 184 427 184 Q465 184 465 145 V84"/>
    <path data-letter="m" transform="translate(24 0)" d="M493 184 V84 M493 111 Q510 82 540 82 Q572 82 572 121 V184 M572 111 Q590 82 620 82 Q653 82 653 121 V184"/>
    <path data-letter="i" transform="translate(24 0)" d="M687 84 V184"/>
  </g>
  <circle data-letter="i-dot" cx="711" cy="46" r="13" fill="#0B132B"/></g>
</svg>
